<mxfile host="65bd71144e">
    <diagram id="yxdjrPIbJy_EQmgz68Lg" name="Page-1">
        <mxGraphModel dx="918" dy="465" grid="0" gridSize="10" guides="1" tooltips="1" connect="1" arrows="1" fold="1" page="1" pageScale="1" pageWidth="827" pageHeight="1169" background="#ffffff" math="0" shadow="0">
            <root>
                <mxCell id="0"/>
                <mxCell id="1" parent="0"/>
                <mxCell id="2" value="&lt;font color=&quot;#000000&quot;&gt;Marque&lt;br&gt;&lt;/font&gt;" style="shape=umlActor;verticalLabelPosition=bottom;verticalAlign=top;html=1;outlineConnect=0;strokeWidth=1;strokeColor=#000000;fillColor=#3399FF;" parent="1" vertex="1">
                    <mxGeometry x="79" y="104" width="47" height="99" as="geometry"/>
                </mxCell>
                <mxCell id="12" value="&lt;font color=&quot;#000000&quot;&gt;Influenceur&lt;/font&gt;" style="shape=umlActor;verticalLabelPosition=bottom;verticalAlign=top;html=1;outlineConnect=0;strokeWidth=1;strokeColor=#000000;fillColor=#3399FF;" parent="1" vertex="1">
                    <mxGeometry x="79" y="410" width="47" height="99" as="geometry"/>
                </mxCell>
                <mxCell id="15" value="" style="rounded=0;whiteSpace=wrap;html=1;strokeColor=#006EAF;strokeWidth=1;fontColor=#ffffff;fillColor=#1BA2E3;" parent="1" vertex="1">
                    <mxGeometry x="198" y="86" width="519" height="449" as="geometry"/>
                </mxCell>
                <mxCell id="16" value="&lt;font color=&quot;#000000&quot;&gt;S'authentifier&lt;/font&gt;" style="ellipse;whiteSpace=wrap;html=1;strokeColor=#000000;strokeWidth=1;fontColor=#ffffff;fillColor=#1ba1e2;" parent="1" vertex="1">
                    <mxGeometry x="544" y="274" width="149" height="58" as="geometry"/>
                </mxCell>
                <mxCell id="17" value="" style="endArrow=none;html=1;strokeColor=#000000;fontColor=#000000;" parent="1" edge="1">
                    <mxGeometry width="50" height="50" relative="1" as="geometry">
                        <mxPoint x="118" y="149" as="sourcePoint"/>
                        <mxPoint x="622" y="274" as="targetPoint"/>
                        <Array as="points">
                            <mxPoint x="622" y="149"/>
                        </Array>
                    </mxGeometry>
                </mxCell>
                <mxCell id="18" value="" style="endArrow=none;html=1;strokeColor=#000000;fontColor=#000000;" parent="1" edge="1">
                    <mxGeometry width="50" height="50" relative="1" as="geometry">
                        <mxPoint x="117" y="456" as="sourcePoint"/>
                        <mxPoint x="620.9999999999998" y="332" as="targetPoint"/>
                        <Array as="points">
                            <mxPoint x="620.9999999999998" y="456"/>
                        </Array>
                    </mxGeometry>
                </mxCell>
                <mxCell id="19" value="System" style="rounded=0;whiteSpace=wrap;html=1;strokeColor=none;strokeWidth=1;fontColor=#000000;fillColor=#1ba1e2;" parent="1" vertex="1">
                    <mxGeometry x="420" y="92" width="69" height="32" as="geometry"/>
                </mxCell>
            </root>
        </mxGraphModel>
    </diagram>
</mxfile>